<svg width="20" height="20" viewBox="0 0 184 184" fill="none" xmlns="http://www.w3.org/2000/svg">
	<path d="M156.872 26.8505C121.072 -8.94887 62.9818 -8.94887 27.1824 26.8505C-8.61696 62.6499 -8.61696 120.741 27.1824 156.54C62.9818 192.339 121.072 192.339 156.872 156.54C192.727 120.741 192.727 62.7055 156.872 26.8505ZM61.4809 122.297C44.5818 105.398 44.5818 78.0481 61.4809 61.149C78.38 44.2499 105.73 44.2499 122.629 61.149C139.528 78.0481 139.528 105.398 122.629 122.297C105.73 139.196 78.3244 139.196 61.4809 122.297Z" fill="#7245DE"/><path d="M156.873 156.595C141.975 171.493 123.186 180.221 103.786 182.722C108.789 182.055 113.792 180.999 118.628 179.554C45.9731 178.998 18.1229 105.731 60.6486 61.9827C46.8625 76.4915 45.0836 98.1712 55.2009 114.514C58.9809 119.851 60.1483 121.797 67.8196 127.578C69.4873 128.69 71.2105 129.69 72.9894 130.58C113.458 151.815 172.105 126.522 181.166 71.0993C189.504 102.062 177.275 136.361 156.873 156.595Z" fill="url(#paint0_linear_265_447)"/><path d="M118.683 179.498C87.3308 188.949 51.9761 181.333 27.1834 156.54C16.6771 146.034 9.2837 133.637 4.94775 120.463C-5.05829 80.0495 43.6934 37.2458 99.9495 49.1975C86.4414 46.696 71.9326 50.6428 61.4263 61.1492C17.8444 104.787 45.5834 178.942 118.683 179.498Z" fill="url(#paint1_linear_265_447)"/><path d="M27.1838 26.85C1.83515 52.1986 -5.55821 88.6651 4.94813 120.518C-5.05791 80.0488 43.6937 37.2452 100.006 49.1968C103.23 49.8639 106.454 50.8089 109.567 52.143C118.739 56.2011 129.468 54.3666 136.583 47.2512L136.806 47.0288C148.757 35.0772 145.033 14.8983 129.579 8.00529C95.8363 -7.11495 54.8672 -0.833376 27.1838 26.85Z" fill="url(#paint2_linear_265_447)"/><defs><linearGradient id="paint0_linear_265_447" x1="156.233" y1="142.261" x2="9.70332" y2="71.3001" gradientUnits="userSpaceOnUse"><stop stop-color="#825CE1"/><stop offset="1" stop-color="#FF418F"/></linearGradient><linearGradient id="paint1_linear_265_447" x1="52.4424" y1="54.2531" x2="20.3684" y2="148.869" gradientUnits="userSpaceOnUse"><stop stop-color="#FF9D4E"/><stop offset="0.49858" stop-color="#EC678E"/><stop offset="1" stop-color="#BC3FDC"/></linearGradient><linearGradient id="paint2_linear_265_447" x1="105.963" y1="2.66508" x2="0.586912" y2="87.4768" gradientUnits="userSpaceOnUse"><stop stop-color="#FFDE6F"/><stop offset="1" stop-color="#F7677F"/></linearGradient></defs>
</svg>